<svg id="Layer_1" data-name="Layer 1" xmlns="http://www.w3.org/2000/svg" viewBox="0 0 205.43 160.88"><defs><style>.cls-1{fill:#007592;}.cls-2{fill:#02b0d2;}.cls-3{fill:#0094b4;}.cls-4{fill:#005a4e;}.cls-5{fill:#3abb99;}.cls-6{fill:#00a759;}.cls-7{font-size:37.44px;fill:#999;font-family:Roboto-Thin, Roboto;font-weight:200;}.cls-8{letter-spacing:-0.01em;}.cls-9{letter-spacing:0em;}</style></defs><g id="Logo"><path class="cls-1" d="M296.25,146a59.39,59.39,0,0,0-15.32,34.58A28.25,28.25,0,0,0,253.29,158V127.33A58.67,58.67,0,0,1,296.25,146Z" transform="translate(-194.42 -127.33)"/><path class="cls-2" d="M399.85,186.19c0,1.52-.06,3-.17,4.52l-.09,1.07c-.06.67-.13,1.34-.22,2A59,59,0,0,1,341,245.05l-1.44,0V214.35c.48,0,1,0,1.44,0a28.23,28.23,0,0,0,28.2-28.2Z" transform="translate(-194.42 -127.33)"/><path class="cls-1" d="M339.55,214.35V245a58.66,58.66,0,0,1-42.41-19.62,58.6,58.6,0,0,0,15-39.22h.64A28.23,28.23,0,0,0,339.55,214.35Z" transform="translate(-194.42 -127.33)"/><path class="cls-3" d="M399.85,186.19H369.19A28.23,28.23,0,0,0,341,158c-.48,0-1,0-1.44,0V127.35l1.44,0a59,59,0,0,1,58.39,51.38q.12.94.21,1.89l.09,1.07C399.79,183.17,399.85,184.67,399.85,186.19Z" transform="translate(-194.42 -127.33)"/><path class="cls-4" d="M339.55,127.35V158a28.23,28.23,0,0,0-26.76,28.16h-.64a58.6,58.6,0,0,1-15,39.22c-.29.33-.59.65-.88,1a58.7,58.7,0,0,1-43,18.67V214.39a28.25,28.25,0,0,0,27.64-22.6,28.28,28.28,0,0,0,0-11.2A59.39,59.39,0,0,1,296.25,146c.3.32.6.64.89,1A58.67,58.67,0,0,1,339.55,127.35Z" transform="translate(-194.42 -127.33)"/><polygon class="cls-5" points="58.87 0 58.87 30.66 29.43 30.66 29.43 58.86 0 58.86 0 0 58.87 0"/><polygon class="cls-6" points="58.87 87.06 58.87 117.72 0 117.72 0 58.86 29.43 58.86 29.43 87.06 58.87 87.06"/></g><text class="cls-7" transform="translate(17.1 150.74)">D<tspan class="cls-8" x="24.5" y="0">e</tspan><tspan class="cls-9" x="43.13" y="0">vOpsify</tspan></text></svg>